<!DOCTYPE svg PUBLIC "-//W3C//DTD SVG 20010904//EN" "http://www.w3.org/TR/2001/REC-SVG-20010904/DTD/svg10.dtd">
<svg version="1.0" xmlns="http://www.w3.org/2000/svg" width="200px" height="200px" viewBox="0 0 2000 2000" preserveAspectRatio="xMidYMid meet">
<g id="layer101" fill="#b2271d" stroke="none">
 <path d="M0 1870 c0 -150 9 -178 66 -205 129 -61 243 101 142 204 -29 29 -36 32 -87 29 l-56 -3 -3 -35 c-3 -28 -1 -33 9 -22 20 19 76 15 99 -8 30 -30 27 -83 -6 -109 -35 -27 -59 -26 -89 4 -24 23 -25 30 -25 150 l0 125 -25 0 -25 0 0 -130z"/>
 <path d="M331 1750 c0 -82 5 -152 10 -156 5 -3 18 -3 28 1 18 5 19 18 20 155 l2 150 -31 0 -31 0 2 -150z"/>
 <path d="M467 1893 c-18 -17 -2 -54 49 -116 l56 -67 -51 0 c-50 0 -51 -1 -51 -30 l0 -30 66 0 c72 0 104 12 104 38 0 9 -25 49 -55 87 l-54 70 54 3 c51 3 55 5 55 27 0 25 -2 25 -83 25 -46 0 -87 -3 -90 -7z"/>
 <path d="M692 1888 c-20 -20 -15 -33 44 -107 l55 -71 -50 0 c-50 0 -51 -1 -51 -30 l0 -30 66 0 c121 0 132 28 49 131 l-56 69 61 0 c57 0 60 1 60 25 0 25 -1 25 -83 25 -51 0 -88 -5 -95 -12z"/>
 <path d="M952 1866 c-33 -31 -37 -39 -37 -84 0 -61 26 -101 78 -121 48 -18 103 -7 139 29 27 27 28 33 28 119 0 90 0 91 -25 91 -23 0 -24 -2 -27 -81 -3 -75 -5 -84 -29 -102 -23 -17 -31 -18 -62 -8 -19 7 -38 19 -41 27 -12 31 -5 75 14 94 21 21 74 27 85 10 12 -19 25 -10 25 19 0 33 -14 41 -71 41 -31 0 -47 -7 -77 -34z"/>
 <path d="M1300 1745 l0 -155 25 0 c23 0 25 4 25 41 0 35 3 40 18 34 38 -16 53 -17 83 -5 45 19 59 56 59 155 l0 85 -30 0 -30 0 0 -90 c0 -80 -2 -90 -20 -100 -51 -27 -80 19 -80 126 0 62 -1 64 -25 64 l-25 0 0 -155z"/>
 <path d="M1605 1875 c-23 -22 -25 -31 -25 -125 l0 -100 25 0 c25 0 25 1 25 81 0 95 10 119 48 119 45 0 52 -16 52 -112 l0 -88 30 0 30 0 0 96 c0 92 -1 97 -29 125 -25 24 -37 29 -81 29 -41 0 -56 -5 -75 -25z"/>
 <path d="M1881 1874 c-19 -24 -21 -40 -21 -155 l0 -129 30 0 c27 0 30 3 30 30 0 28 2 30 40 30 38 0 40 2 40 30 0 28 -2 30 -40 30 l-41 0 3 68 3 67 38 3 c32 3 37 7 37 28 0 22 -4 24 -49 24 -42 0 -53 -4 -70 -26z"/>
 <path d="M214 1573 c-23 -4 -23 -11 -5 -175 4 -38 4 -68 0 -68 -5 0 -22 46 -40 103 -17 56 -35 106 -39 111 -14 14 -60 -2 -59 -22 0 -9 12 -54 28 -99 l27 -83 -33 0 c-31 0 -33 -2 -33 -35 l0 -35 79 0 80 0 7 -46 c6 -45 7 -45 43 -42 34 3 36 5 36 41 l0 37 68 0 67 0 0 35 c0 31 -3 35 -26 35 -19 0 -24 4 -20 18 3 9 17 57 31 105 15 49 25 90 23 92 -2 2 -16 5 -32 7 -30 3 -30 2 -65 -107 -19 -60 -36 -112 -38 -114 -9 -12 -15 17 -25 128 -12 132 -9 127 -74 114z"/>
 <path d="M1265 1530 c-21 -22 -41 -36 -44 -31 -4 5 -37 18 -76 30 -38 12 -77 24 -86 27 -12 3 -20 -5 -28 -28 -7 -21 -8 -34 -2 -36 5 -2 7 -10 4 -17 -3 -8 -13 -51 -23 -96 -18 -85 -18 -86 29 -91 19 -2 26 3 31 22 6 23 10 25 66 25 32 0 62 4 66 9 3 5 14 -17 24 -48 17 -55 19 -57 48 -50 40 8 40 8 28 43 l-11 31 55 0 c56 0 60 3 48 48 -6 20 -13 22 -65 22 -55 0 -59 1 -59 24 0 14 18 43 46 72 l45 49 -22 17 c-11 10 -24 18 -28 18 -4 0 -24 -18 -46 -40z m-107 -79 c28 -8 42 -17 42 -29 0 -14 -8 -16 -53 -14 -53 4 -53 4 -49 33 2 16 7 27 11 25 3 -2 25 -9 49 -15z"/>
 <path d="M1637 1558 c-28 -10 -29 -15 -10 -65 5 -12 -80 26 -85 39 -2 4 -18 8 -36 8 l-32 0 -12 -131 c-6 -72 -9 -135 -6 -140 3 -5 17 -10 32 -10 24 -2 24 -2 5 -6 -19 -4 -23 -11 -23 -39 0 -27 4 -34 20 -34 11 0 20 -4 20 -10 0 -5 16 -10 35 -10 19 0 35 4 35 9 0 13 131 24 144 11 13 -13 56 -13 56 0 0 6 11 10 25 10 21 0 25 5 25 30 0 23 -5 30 -19 30 -10 0 -21 9 -24 20 -4 17 0 20 29 20 31 0 34 3 34 30 0 17 -5 30 -12 30 -8 0 -13 13 -13 30 0 17 3 30 8 30 4 0 7 14 7 30 l0 30 -70 0 -69 0 -12 43 c-16 54 -19 56 -52 45z"/>
 <path d="M534 1443 c4 -65 9 -154 12 -198 l6 -80 164 0 c173 0 183 3 184 48 0 9 5 17 10 17 6 0 10 13 10 29 0 23 -5 31 -22 34 l-23 4 23 2 c18 1 22 7 22 31 0 17 -4 30 -9 30 -4 0 -6 12 -3 27 3 18 -1 30 -13 40 -18 12 -18 13 3 13 12 0 22 6 22 14 0 7 3 34 6 60 l7 46 -203 0 -202 0 6 -117z m174 60 c-16 -2 -40 -2 -55 0 -16 2 -3 4 27 4 30 0 43 -2 28 -4z m170 0 c-15 -2 -42 -2 -60 0 -18 2 -6 4 27 4 33 0 48 -2 33 -4z m-256 -35 c2 -18 -1 -41 -7 -50 -7 -13 -6 -24 3 -38 7 -11 8 -20 3 -20 -14 0 -21 28 -21 86 0 58 17 75 22 22z m226 -35 c-10 -2 -28 -2 -40 0 -13 2 -5 4 17 4 22 1 32 -1 23 -4z m-38 -62 c42 -8 39 -9 -32 -10 -42 0 -80 4 -83 9 -7 12 50 12 115 1z m-102 -138 c-86 -4 -87 -4 -91 -31 -4 -25 -4 -24 -6 6 l-1 32 93 -2 92 -2 -87 -3z"/>
 <path d="M860 1144 c-136 -36 -249 -112 -330 -222 -179 -242 -147 -566 76 -770 116 -107 235 -152 399 -152 164 0 283 45 399 152 223 204 255 527 76 770 -82 111 -195 187 -335 223 -74 19 -212 18 -285 -1z"/>
 </g>
<g id="layer102" fill="#a85634" stroke="none">
 <path d="M0 1870 c0 -150 9 -178 66 -205 129 -61 243 101 142 204 -29 29 -36 32 -87 29 l-56 -3 -3 -35 c-3 -28 -1 -33 9 -22 20 19 76 15 99 -8 30 -30 27 -83 -6 -109 -35 -27 -59 -26 -89 4 -24 23 -25 30 -25 150 l0 125 -25 0 -25 0 0 -130z"/>
 <path d="M331 1750 c0 -82 5 -152 10 -156 5 -3 18 -3 28 1 18 5 19 18 20 155 l2 150 -31 0 -31 0 2 -150z m49 -125 c0 -19 -20 -29 -32 -17 -15 15 -2 43 17 36 8 -3 15 -12 15 -19z"/>
 <path d="M467 1893 c-18 -17 -2 -54 49 -116 l56 -67 -51 0 c-50 0 -51 -1 -51 -30 l0 -30 66 0 c72 0 104 12 104 38 0 9 -25 49 -55 87 l-54 70 54 3 c51 3 55 5 55 27 0 25 -2 25 -83 25 -46 0 -87 -3 -90 -7z"/>
 <path d="M692 1888 c-20 -20 -15 -33 44 -107 l55 -71 -50 0 c-50 0 -51 -1 -51 -30 l0 -30 66 0 c121 0 132 28 49 131 l-56 69 61 0 c57 0 60 1 60 25 0 25 -1 25 -83 25 -51 0 -88 -5 -95 -12z"/>
 <path d="M952 1866 c-33 -31 -37 -39 -37 -84 0 -61 26 -101 78 -121 48 -18 103 -7 139 29 27 27 28 33 28 119 0 90 0 91 -25 91 -23 0 -24 -2 -27 -81 -3 -75 -5 -84 -30 -102 -29 -22 -65 -18 -92 9 -23 22 -20 80 4 104 21 21 74 27 85 10 12 -19 25 -10 25 19 0 33 -14 41 -71 41 -31 0 -47 -7 -77 -34z"/>
 <path d="M1300 1745 l0 -155 25 0 c23 0 25 4 25 41 0 35 3 40 18 34 38 -16 53 -17 83 -5 45 19 59 56 59 155 l0 85 -30 0 -30 0 0 -90 c0 -80 -2 -90 -20 -100 -51 -27 -80 19 -80 126 0 62 -1 64 -25 64 l-25 0 0 -155z"/>
 <path d="M1605 1875 c-23 -22 -25 -31 -25 -125 l0 -100 25 0 c25 0 25 1 25 81 0 95 10 119 48 119 45 0 52 -16 52 -112 l0 -88 30 0 30 0 0 96 c0 92 -1 97 -29 125 -25 24 -37 29 -81 29 -41 0 -56 -5 -75 -25z"/>
 <path d="M1881 1874 c-19 -24 -21 -40 -21 -155 l0 -129 30 0 c27 0 30 3 30 30 0 28 2 30 40 30 38 0 40 2 40 30 0 28 -2 30 -40 30 l-41 0 3 68 3 67 38 3 c32 3 37 7 37 28 0 22 -4 24 -49 24 -42 0 -53 -4 -70 -26z"/>
 <path d="M219 1573 c-29 -5 -28 13 -10 -165 4 -43 4 -78 0 -78 -5 0 -22 46 -40 103 -17 56 -35 106 -39 111 -14 14 -60 -2 -59 -22 0 -9 12 -54 28 -99 l27 -83 -33 0 c-31 0 -33 -2 -33 -35 l0 -35 79 0 80 0 7 -46 c6 -45 7 -45 43 -42 34 3 36 5 36 41 l0 37 68 0 67 0 0 35 c0 31 -3 35 -26 35 -19 0 -24 4 -20 18 3 9 17 57 31 105 15 49 25 90 23 92 -2 2 -16 5 -32 7 -30 3 -30 2 -65 -107 -19 -60 -36 -112 -38 -114 -9 -12 -15 17 -25 128 -12 130 -8 123 -69 114z"/>
 <path d="M1265 1530 c-21 -22 -41 -36 -44 -31 -4 5 -37 18 -76 30 -38 12 -77 24 -86 27 -12 3 -20 -5 -28 -28 -6 -18 -8 -34 -3 -36 5 -1 3 -26 -4 -54 -8 -28 -17 -73 -20 -100 -6 -44 -5 -48 15 -49 11 -1 26 -2 33 -3 7 -1 15 10 18 24 6 23 10 25 66 25 32 0 62 4 66 9 3 5 14 -17 24 -48 17 -55 19 -57 48 -50 40 8 40 8 28 43 l-11 31 55 0 c56 0 60 3 48 48 -6 20 -13 22 -65 22 -55 0 -59 1 -59 24 0 14 18 43 46 72 l45 49 -22 17 c-11 10 -24 18 -28 18 -4 0 -24 -18 -46 -40z m-107 -79 c28 -8 42 -17 42 -29 0 -14 -8 -16 -53 -14 -53 4 -53 4 -49 33 2 16 7 27 11 25 3 -2 25 -9 49 -15z"/>
 <path d="M1637 1558 c-28 -10 -29 -15 -10 -65 5 -12 -80 26 -85 39 -2 4 -18 8 -36 8 l-32 0 -12 -131 c-6 -72 -9 -135 -6 -140 3 -5 17 -10 32 -10 24 -2 24 -2 5 -6 -19 -4 -23 -11 -23 -39 0 -27 4 -34 20 -34 11 0 20 -4 20 -10 0 -5 16 -10 35 -10 19 0 35 4 35 9 0 13 131 24 144 11 13 -13 56 -13 56 0 0 6 11 10 25 10 21 0 25 5 25 30 0 23 -5 30 -19 30 -10 0 -21 9 -24 19 -4 16 1 20 27 23 26 2 32 8 34 31 2 17 -1 27 -10 27 -8 0 -13 12 -13 30 0 17 3 30 8 30 4 0 7 14 7 30 l0 30 -70 0 -69 0 -12 43 c-16 54 -19 56 -52 45z"/>
 <path d="M534 1443 c4 -65 9 -154 12 -198 l6 -80 164 0 c173 0 183 3 184 48 0 9 5 17 10 17 6 0 10 13 10 29 0 23 -5 31 -22 34 l-23 4 23 2 c18 1 22 7 22 31 0 17 -4 30 -10 30 -5 0 -6 8 -3 18 6 15 5 15 -11 3 -24 -20 -183 -28 -199 -11 -10 10 5 11 70 5 73 -6 82 -5 77 9 -4 9 -1 23 6 30 9 12 5 15 -27 19 l-38 4 41 1 c28 2 47 -4 62 -18 12 -12 22 -16 22 -11 0 6 -8 15 -17 20 -16 9 -16 10 5 11 12 0 22 6 22 14 0 7 3 34 6 60 l7 46 -203 0 -202 0 6 -117z m174 60 c-16 -2 -40 -2 -55 0 -16 2 -3 4 27 4 30 0 43 -2 28 -4z m175 0 c-18 -2 -48 -2 -65 0 -18 2 -4 4 32 4 36 0 50 -2 33 -4z m-261 -35 c2 -18 -1 -41 -7 -50 -7 -13 -6 -24 3 -38 7 -11 8 -20 3 -20 -14 0 -21 28 -21 86 0 58 17 75 22 22z m86 -235 c-86 -4 -87 -4 -91 -31 -4 -25 -4 -24 -6 6 l-1 32 93 -2 92 -2 -87 -3z"/>
 <path d="M860 1144 c-136 -36 -249 -112 -330 -222 -179 -242 -147 -566 76 -770 116 -107 235 -152 399 -152 164 0 283 45 399 152 223 204 255 527 76 770 -82 111 -195 187 -335 223 -74 19 -212 18 -285 -1z m-119 -244 c37 -20 18 -80 -26 -80 -27 0 -45 18 -45 45 0 40 32 55 71 35z m603 -27 c4 -10 -1 -25 -14 -37 l-20 -20 -20 20 c-27 27 -17 54 20 54 17 0 30 -7 34 -17z m100 -124 c48 -38 24 -109 -37 -109 -65 0 -91 70 -41 109 15 12 32 21 39 21 7 0 24 -9 39 -21z m-784 -14 c19 -23 4 -62 -27 -70 -29 -7 -53 13 -53 45 0 37 55 55 80 25z m128 -119 c3 -24 0 -27 -20 -24 -26 3 -37 36 -16 49 20 13 33 5 36 -25z m536 -27 c14 -41 2 -59 -39 -59 -28 0 -38 5 -47 25 -9 21 -8 28 7 45 26 29 67 23 79 -11z m-299 -89 c0 -19 -6 -26 -24 -28 -30 -5 -45 10 -36 38 10 32 60 24 60 -10z m414 -14 c17 -20 3 -46 -25 -46 -20 0 -24 5 -24 30 0 23 5 30 19 30 10 0 24 -6 30 -14z m-731 -33 c14 -20 8 -60 -14 -84 -15 -17 -69 -15 -91 3 -19 15 -16 68 4 91 22 23 81 17 101 -10z m197 -63 c0 -33 -2 -35 -37 -38 -44 -4 -66 23 -48 59 9 16 19 19 48 17 35 -3 37 -5 37 -38z m263 -3 c-2 -17 -10 -22 -33 -22 -25 0 -31 4 -33 27 -2 19 2 27 15 30 29 7 55 -11 51 -35z m176 -18 c19 -15 26 -30 26 -54 0 -38 -16 -54 -65 -65 -69 -16 -107 53 -60 108 31 37 61 41 99 11z m-429 -129 c36 -40 -7 -100 -58 -81 -33 13 -43 46 -23 76 20 30 56 32 81 5z m199 -22 c8 -14 7 -21 -5 -33 -28 -29 -73 11 -48 42 15 17 38 13 53 -9z"/>
 </g>
<g id="layer103" fill="#bf856d" stroke="none">
 <path d="M165 1890 c35 -14 65 -55 74 -101 6 -30 9 -36 10 -17 1 15 -3 37 -8 50 -12 31 -60 78 -80 77 -12 0 -11 -2 4 -9z"/>
 <path d="M467 1893 c-18 -17 -2 -54 49 -116 l56 -67 -51 0 -51 0 1 -32 c2 -31 2 -31 6 -5 4 25 8 27 54 27 27 0 49 3 49 6 0 3 -25 36 -56 72 -43 53 -54 73 -51 95 4 29 4 30 -6 20z"/>
 <path d="M692 1888 c-20 -20 -15 -33 44 -107 l55 -71 -50 0 -51 0 1 -32 c2 -31 2 -31 6 -5 4 26 7 27 60 27 l55 0 -34 41 c-84 104 -93 119 -80 139 14 23 12 26 -6 8z"/>
 <path d="M1452 1813 c-2 -90 -3 -93 -29 -107 -16 -8 -23 -15 -17 -16 7 0 21 8 33 18 20 16 22 25 19 107 l-4 90 -2 -92z"/>
 <path d="M1502 1813 c-2 -83 -4 -94 -29 -124 -23 -27 -24 -30 -7 -21 34 18 45 61 41 153 l-3 84 -2 -92z"/>
 <path d="M1605 1875 c-14 -13 -25 -30 -25 -37 1 -7 7 -2 15 12 7 14 26 30 42 37 19 8 22 12 10 13 -10 0 -29 -11 -42 -25z"/>
 <path d="M1888 1883 c-8 -10 -18 -25 -22 -33 -4 -8 0 -6 8 5 9 11 24 26 33 33 9 6 12 12 6 12 -5 0 -17 -8 -25 -17z"/>
 <path d="M948 1863 c-15 -16 -29 -41 -32 -58 l-6 -30 11 30 c6 17 23 42 37 58 14 15 23 27 21 27 -3 0 -17 -12 -31 -27z"/>
 <path d="M1760 1864 c19 -27 21 -42 18 -122 -2 -51 0 -92 5 -92 4 0 7 42 7 94 0 88 -2 97 -26 123 l-25 28 21 -31z"/>
 <path d="M105 1853 c11 -2 30 -6 43 -9 14 -3 29 -18 37 -37 9 -19 14 -25 15 -14 0 31 -45 67 -82 66 -19 -1 -25 -3 -13 -6z"/>
 <path d="M985 1835 c-32 -31 -34 -86 -5 -115 11 -11 26 -20 33 -20 6 0 3 6 -8 12 -28 16 -35 28 -35 66 0 57 70 95 110 60 12 -11 12 -10 1 5 -20 25 -67 21 -96 -8z"/>
 <path d="M1636 1838 c-11 -16 -16 -46 -16 -99 0 -53 -4 -79 -12 -82 -8 -3 -6 -6 5 -6 15 -1 17 9 17 82 0 52 5 90 13 101 19 26 68 18 84 -14 8 -16 13 -19 13 -9 0 46 -77 65 -104 27z"/>
 <path d="M1923 1853 c-9 -3 -13 -29 -13 -79 l0 -74 48 2 47 1 -42 4 -43 4 0 65 c0 58 2 66 23 74 12 5 15 9 7 9 -8 -1 -21 -3 -27 -6z"/>
 <path d="M532 1832 c7 -10 32 -43 56 -73 47 -62 50 -75 25 -96 -16 -13 -16 -13 5 -3 12 6 22 18 22 27 0 15 -106 163 -117 163 -2 0 2 -8 9 -18z"/>
 <path d="M797 1777 c32 -41 60 -73 62 -71 4 4 -107 144 -115 144 -2 0 22 -33 53 -73z"/>
 <path d="M1864 1710 c0 -69 1 -97 3 -62 2 34 2 90 0 125 -2 34 -3 6 -3 -63z"/>
 <path d="M40 1769 c0 -20 37 -69 53 -69 7 0 4 5 -6 11 -11 6 -25 25 -33 43 -7 17 -13 24 -14 15z"/>
 <path d="M190 1756 c0 -8 -12 -24 -26 -35 -15 -12 -22 -21 -16 -21 15 0 52 41 52 57 0 7 -2 13 -5 13 -3 0 -5 -6 -5 -14z"/>
 <path d="M1111 1758 c-1 -9 -13 -26 -27 -37 -15 -12 -22 -21 -17 -21 17 0 55 48 50 62 -4 9 -6 8 -6 -4z"/>
 <path d="M1351 1752 c-1 -20 18 -52 32 -52 9 0 9 2 0 8 -7 4 -16 19 -22 32 -5 14 -10 19 -10 12z"/>
 <path d="M0 1747 c0 -27 51 -86 75 -87 5 0 -1 7 -14 16 -12 9 -31 30 -42 48 -10 17 -19 27 -19 23z"/>
 <path d="M221 1716 c-7 -13 -24 -30 -37 -37 -13 -7 -22 -14 -20 -16 7 -8 56 29 67 49 6 11 9 22 6 24 -2 2 -9 -7 -16 -20z"/>
 <path d="M920 1734 c0 -22 41 -63 76 -74 19 -7 37 -10 40 -8 2 3 -13 10 -35 17 -26 7 -46 22 -60 44 -11 17 -21 27 -21 21z"/>
 <path d="M1145 1719 c-4 -11 -21 -29 -38 -40 -18 -10 -26 -19 -19 -19 16 0 72 54 72 69 0 18 -8 13 -15 -10z"/>
 <path d="M1258 1525 c-26 -25 -44 -45 -41 -45 3 0 -4 -8 -16 -19 -17 -15 -18 -20 -7 -24 9 -4 18 4 26 22 6 16 28 45 50 66 33 33 40 36 60 25 l22 -12 -28 -31 -29 -32 30 25 c17 14 32 27 35 28 6 4 -39 42 -49 42 -3 0 -27 -21 -53 -45z"/>
 <path d="M387 1553 c-3 -5 6 -9 20 -10 14 0 29 -7 34 -15 7 -10 9 -10 9 0 0 7 -12 17 -26 22 -30 12 -32 12 -37 3z"/>
 <path d="M590 1530 c0 -16 3 -30 8 -30 4 0 7 14 7 30 0 17 -3 30 -7 30 -5 0 -8 -13 -8 -30z"/>
 <path d="M107 1543 c12 -2 24 -14 28 -30 3 -14 8 -23 11 -21 2 3 0 17 -5 32 -8 18 -17 26 -33 25 -22 -2 -22 -2 -1 -6z"/>
 <path d="M533 1490 c0 -30 2 -43 4 -27 2 15 2 39 0 55 -2 15 -4 2 -4 -28z"/>
 <path d="M1470 1532 c0 -5 14 -7 30 -4 18 3 30 0 30 -7 0 -6 6 -11 13 -11 7 0 30 -9 52 -20 46 -23 45 -23 45 -10 0 6 -3 9 -7 9 -14 -3 -93 34 -93 43 0 4 -16 8 -35 8 -19 0 -35 -4 -35 -8z"/>
 <path d="M351 1449 c-12 -39 -21 -72 -19 -75 2 -2 14 28 27 67 12 39 21 72 19 75 -2 2 -14 -28 -27 -67z"/>
 <path d="M914 1504 c-6 -3 -9 -16 -6 -29 4 -25 3 -25 -63 -25 -49 0 -66 -3 -63 -12 3 -7 14 -14 26 -16 33 -5 29 -40 -5 -44 -22 -3 -19 -5 14 -9 32 -3 39 -2 31 8 -5 7 -7 21 -3 32 5 16 1 20 -27 24 -18 2 -3 5 33 5 l67 2 4 35 c2 19 4 35 3 34 0 0 -5 -3 -11 -5z"/>
 <path d="M621 1467 c2 -18 -1 -39 -5 -47 -7 -12 -6 -13 5 -2 7 6 37 12 66 12 29 0 53 5 53 10 0 6 -25 10 -56 10 -55 0 -56 1 -52 25 3 14 1 25 -4 25 -5 0 -8 -15 -7 -33z"/>
 <path d="M151 1470 c0 -8 4 -24 9 -35 5 -13 9 -14 9 -5 0 8 -4 24 -9 35 -5 13 -9 14 -9 5z"/>
 <path d="M1025 1450 c-4 -17 -5 -34 -2 -36 2 -3 7 10 11 27 8 42 0 50 -9 9z"/>
 <path d="M411 1439 c-6 -18 -11 -37 -10 -43 0 -6 7 7 15 28 8 22 12 41 10 43 -2 2 -9 -10 -15 -28z"/>
 <path d="M1831 1448 c0 -15 -8 -28 -17 -30 -13 -3 -13 -5 1 -23 13 -16 15 -16 11 -3 -3 9 0 18 5 20 6 2 9 17 6 33 -4 29 -4 29 -6 3z"/>
 <path d="M91 1454 c-1 -15 30 -106 35 -101 2 2 -5 28 -15 58 -11 30 -20 49 -20 43z"/>
 <path d="M1517 1393 c-6 -77 -4 -83 26 -83 21 0 22 4 21 73 -1 64 -4 72 -21 75 -18 3 -21 -4 -26 -65z"/>
 <path d="M1458 1375 c-1 -30 0 -55 5 -55 4 0 7 25 7 55 0 71 -7 71 -12 0z"/>
 <path d="M1605 1409 c-11 -18 5 -79 20 -79 11 0 15 12 15 45 0 33 -4 45 -14 45 -8 0 -18 -5 -21 -11z"/>
 <path d="M1690 1380 l0 -40 40 0 c37 0 39 1 28 19 -10 17 -9 23 6 40 19 21 19 21 -27 21 l-47 0 0 -40z"/>
 <path d="M606 1384 c-10 -27 -7 -34 17 -33 16 1 18 2 5 6 -10 2 -18 9 -18 14 0 6 4 7 10 4 6 -3 7 1 4 9 -8 20 -10 20 -18 0z"/>
 <path d="M685 1370 c10 -11 25 -20 34 -19 10 0 6 4 -9 11 l-25 11 25 7 c23 7 22 8 -9 9 -33 1 -34 1 -16 -19z"/>
 <path d="M386 1358 c-9 -34 -8 -38 12 -37 10 0 12 3 5 6 -8 3 -11 14 -7 29 3 13 4 24 1 24 -2 0 -7 -10 -11 -22z"/>
 <path d="M1817 1363 c-14 -13 -7 -23 16 -22 17 1 18 2 4 6 -9 2 -15 9 -12 14 7 10 1 12 -8 2z"/>
 <path d="M783 1353 c9 -2 25 -2 35 0 9 3 1 5 -18 5 -19 0 -27 -2 -17 -5z"/>
 <path d="M911 1338 l-1 -28 -149 0 c-98 0 -152 -4 -157 -11 -7 -12 299 -9 311 3 4 3 5 19 2 35 l-4 28 -2 -27z"/>
 <path d="M1588 1279 c-16 -15 -28 -29 -28 -33 0 -3 38 -6 85 -6 50 0 85 4 85 10 0 6 -7 10 -15 10 -9 0 -18 7 -21 15 -4 9 -19 15 -39 15 -18 0 -35 3 -37 8 -1 4 -15 -5 -30 -19z"/>
 <path d="M911 1268 c0 -16 -5 -28 -11 -28 -5 0 -10 -10 -10 -23 0 -13 -5 -28 -12 -35 -9 -9 -9 -12 0 -12 6 0 15 12 18 28 4 15 11 30 16 33 5 3 8 19 5 35 l-4 29 -2 -27z"/>
 <path d="M606 1242 c-2 -4 11 -6 30 -4 19 2 34 6 34 8 0 8 -59 4 -64 -4z"/>
 <path d="M709 1233 l-87 -4 -4 -29 c-4 -29 -4 -30 36 -28 37 1 38 2 9 5 -25 3 -33 9 -33 24 0 17 8 19 98 21 53 0 103 1 110 1 6 -1 12 3 12 8 0 5 -12 8 -27 7 -16 -1 -67 -4 -114 -5z"/>
 <path d="M550 1195 c0 -19 4 -35 8 -35 4 0 6 16 4 35 -2 19 -6 35 -8 35 -2 0 -4 -16 -4 -35z"/>
 <path d="M1506 1175 c4 -10 18 -14 43 -13 l36 1 -32 4 c-18 2 -33 8 -33 14 0 5 -4 9 -10 9 -5 0 -7 -7 -4 -15z"/>
 <path d="M1583 1183 c9 -2 25 -2 35 0 9 3 1 5 -18 5 -19 0 -27 -2 -17 -5z"/>
 <path d="M928 1153 c12 -2 30 -2 40 0 9 3 -1 5 -23 4 -22 0 -30 -2 -17 -4z"/>
 <path d="M1048 1153 c12 -2 30 -2 40 0 9 3 -1 5 -23 4 -22 0 -30 -2 -17 -4z"/>
 <path d="M734 1095 c-87 -44 -152 -99 -210 -180 -44 -62 -94 -172 -94 -204 1 -9 12 16 26 54 30 85 100 192 163 246 25 22 82 58 126 79 44 22 75 40 69 40 -6 0 -42 -16 -80 -35z"/>
 <path d="M1283 1082 c37 -20 87 -53 110 -74 60 -50 132 -159 162 -243 13 -39 25 -62 25 -53 0 35 -52 145 -100 210 -53 73 -127 136 -202 174 -74 37 -71 28 5 -14z"/>
 <path d="M651 915 c-184 -172 -187 -495 -5 -681 104 -107 215 -154 364 -154 232 0 418 138 484 359 24 82 21 211 -7 291 -41 115 -128 227 -169 217 -33 -7 -153 -39 -155 -41 -1 -1 4 -24 11 -51 11 -44 16 -50 39 -50 31 1 31 0 12 -80 -23 -94 -20 -184 8 -236 38 -72 22 -78 -42 -16 -116 115 -215 152 -288 107 l-33 -20 0 44 c0 36 -8 54 -44 104 -24 33 -49 63 -55 66 -21 13 -12 27 10 16 11 -7 23 -9 26 -7 10 10 43 158 38 167 -4 6 -38 10 -76 10 -69 0 -70 -1 -118 -45z m97 -17 c7 -7 12 -21 12 -33 0 -12 -5 -26 -12 -33 -28 -28 -78 -7 -78 33 0 12 5 26 12 33 7 7 21 12 33 12 12 0 26 -5 33 -12z m586 -14 c21 -20 20 -27 -5 -50 -15 -14 -24 -16 -37 -8 -22 14 -27 41 -12 59 16 19 35 19 54 -1z m110 -135 c48 -38 24 -109 -37 -109 -65 0 -91 70 -41 109 15 12 32 21 39 21 7 0 24 -9 39 -21z m-786 -11 c28 -28 7 -78 -33 -78 -27 0 -45 18 -45 45 0 27 18 45 45 45 12 0 26 -5 33 -12z m132 -103 c18 -21 5 -47 -22 -43 -26 3 -37 36 -16 49 18 12 24 11 38 -6z m528 -27 c22 -22 15 -67 -12 -80 -31 -14 -53 -5 -68 27 -9 21 -8 28 7 45 20 22 55 26 73 8z m-298 -83 c20 -25 8 -50 -25 -50 -21 0 -31 5 -33 18 -4 21 14 47 33 47 7 0 18 -7 25 -15z m425 -55 c0 -20 -6 -26 -28 -28 -29 -4 -44 16 -33 44 4 10 15 14 33 12 22 -2 28 -8 28 -28z m-741 -12 c22 -31 20 -58 -6 -85 -25 -27 -54 -29 -86 -7 -27 18 -30 69 -5 96 23 26 78 24 97 -4z m187 -28 c12 -7 19 -21 19 -40 0 -51 -58 -68 -86 -25 -15 23 -15 27 0 50 18 27 36 31 67 15z m269 -15 c20 -25 8 -50 -25 -50 -24 0 -31 5 -33 24 -6 37 34 55 58 26z m184 -46 c52 -41 19 -129 -49 -129 -64 0 -95 91 -46 131 30 25 62 24 95 -2z m-426 -121 c21 -21 14 -66 -12 -83 -50 -33 -104 20 -72 70 18 27 63 34 84 13z m200 -34 c2 -11 -3 -26 -11 -33 -29 -24 -70 17 -46 46 17 20 53 12 57 -13z"/>
 <path d="M978 820 c-3 -16 -1 -30 4 -30 4 0 8 14 8 30 0 17 -2 30 -4 30 -2 0 -6 -13 -8 -30z"/>
 <path d="M1130 800 c0 -5 -7 -10 -15 -10 -8 0 -15 -4 -15 -10 0 -16 15 -12 35 10 10 11 13 20 7 20 -7 0 -12 -4 -12 -10z"/>
 <path d="M1070 720 l-25 -8 28 -1 c15 -1 27 4 27 9 0 6 -1 10 -2 9 -2 -1 -14 -5 -28 -9z"/>
 <path d="M421 495 c-1 -41 41 -156 81 -222 40 -67 137 -159 211 -202 30 -17 58 -31 63 -31 5 0 -20 17 -56 37 -139 78 -251 230 -285 385 -8 40 -14 52 -14 33z"/>
 <path d="M1572 450 c-34 -148 -147 -297 -282 -373 -36 -20 -61 -37 -56 -37 5 0 33 14 63 31 74 43 171 135 211 202 38 62 85 190 80 215 -2 9 -9 -8 -16 -38z"/>
 </g>
<g id="layer104" fill="#d5b2a3" stroke="none">
 <path d="M1454 1815 c0 -49 1 -71 3 -48 2 23 2 64 0 90 -2 26 -3 8 -3 -42z"/>
 <path d="M1504 1810 c0 -52 1 -74 3 -47 2 26 2 68 0 95 -2 26 -3 4 -3 -48z"/>
 <path d="M1760 1867 c10 -13 17 -53 21 -120 l5 -102 2 97 c2 88 0 99 -20 120 -13 13 -16 15 -8 5z"/>
 <path d="M1864 1710 c0 -69 1 -97 3 -62 2 34 2 90 0 125 -2 34 -3 6 -3 -63z"/>
 <path d="M755 1758 l37 -48 -51 0 -51 0 1 -32 c2 -31 2 -31 6 -5 4 25 8 27 54 27 27 0 49 3 49 8 0 4 -18 27 -41 52 l-41 45 37 -47z"/>
 <path d="M920 1735 c0 -17 29 -54 53 -66 18 -9 18 -7 -4 13 -15 12 -32 32 -38 43 -6 11 -11 15 -11 10z"/>
 <path d="M498 1703 c18 -2 45 -2 60 0 15 2 0 4 -33 4 -33 0 -45 -2 -27 -4z"/>
 <path d="M1938 1703 c12 -2 32 -2 45 0 12 2 2 4 -23 4 -25 0 -35 -2 -22 -4z"/>
 <path d="M1253 1520 c-23 -22 -39 -40 -35 -40 5 0 26 18 47 40 50 51 43 51 -12 0z"/>
 <path d="M1526 1525 c4 -8 13 -15 21 -15 12 0 12 2 -1 15 -8 8 -17 15 -20 15 -3 0 -3 -7 0 -15z"/>
 <path d="M533 1485 c0 -27 2 -38 4 -22 2 15 2 37 0 50 -2 12 -4 0 -4 -28z"/>
 <path d="M910 1475 c0 -23 -4 -24 -62 -28 l-63 -3 68 -2 67 -2 0 30 c0 17 -2 30 -5 30 -3 0 -5 -11 -5 -25z"/>
 <path d="M1525 1448 c-2 -7 -5 -39 -8 -70 -3 -52 -2 -57 20 -61 30 -6 33 -2 21 39 -6 23 -6 46 1 64 7 23 6 30 -6 34 -21 8 -23 8 -28 -6z"/>
 <path d="M623 1443 c4 -3 1 -13 -6 -21 -9 -11 -5 -11 15 2 19 12 41 17 68 14 22 -2 40 0 40 4 0 5 -28 8 -62 8 -34 0 -58 -3 -55 -7z"/>
 <path d="M1463 1390 c0 -25 2 -35 4 -22 2 12 2 32 0 45 -2 12 -4 2 -4 -23z"/>
 <path d="M1606 1405 c-8 -22 5 -76 18 -72 6 2 12 22 14 45 2 31 -1 42 -11 42 -8 0 -17 -7 -21 -15z"/>
 <path d="M1697 1413 c-4 -3 -7 -21 -7 -40 0 -31 2 -33 35 -33 33 0 35 2 29 25 -4 15 -1 32 6 40 11 13 7 15 -22 15 -19 0 -38 -3 -41 -7z"/>
 <path d="M607 1383 c-15 -14 -6 -33 16 -32 16 1 18 2 5 6 -10 2 -18 9 -18 14 0 6 5 7 12 3 7 -4 8 -3 4 4 -8 14 -10 14 -19 5z"/>
 <path d="M685 1370 c10 -11 23 -20 29 -20 6 0 2 6 -9 12 -19 11 -19 11 0 19 17 6 15 8 -9 8 -28 1 -29 1 -11 -19z"/>
 <path d="M908 1330 c-3 -16 -1 -30 4 -30 4 0 8 14 8 30 0 17 -2 30 -4 30 -2 0 -6 -13 -8 -30z"/>
 <path d="M665 1301 c-16 -4 25 -7 92 -7 67 0 119 4 117 8 -6 10 -166 8 -209 -1z"/>
 <path d="M1610 1290 c0 -6 -12 -15 -26 -20 -43 -17 -16 -30 62 -30 41 0 74 2 74 5 0 15 -44 46 -63 43 -12 -1 -28 1 -34 5 -8 5 -13 3 -13 -3z"/>
 <path d="M792 1234 c10 -9 58 -12 52 -3 -3 5 -17 9 -31 9 -15 0 -24 -3 -21 -6z"/>
 <path d="M1583 1183 c9 -2 25 -2 35 0 9 3 1 5 -18 5 -19 0 -27 -2 -17 -5z"/>
 <path d="M1510 1168 c0 -4 16 -8 35 -8 19 0 35 2 35 4 0 2 -16 6 -35 8 -19 2 -35 0 -35 -4z"/>
 <path d="M585 988 l-40 -43 43 40 c23 21 42 40 42 42 0 8 -9 0 -45 -39z"/>
 <path d="M1415 990 c21 -22 41 -40 44 -40 3 0 -13 18 -34 40 -21 22 -41 40 -44 40 -3 0 13 -18 34 -40z"/>
 <path d="M651 915 c-184 -172 -187 -495 -5 -681 104 -107 215 -154 364 -154 232 0 418 138 484 359 24 82 21 211 -7 291 -41 115 -128 227 -169 217 -33 -7 -153 -39 -155 -41 -1 -1 4 -24 11 -51 11 -44 16 -50 39 -50 31 1 31 0 12 -80 -23 -94 -20 -184 8 -236 38 -72 22 -78 -42 -16 -116 115 -215 152 -288 107 l-33 -20 0 44 c0 36 -8 54 -44 104 -24 33 -49 63 -55 66 -21 13 -12 27 10 16 11 -7 23 -9 26 -7 10 10 43 158 38 167 -4 6 -38 10 -76 10 -69 0 -70 -1 -118 -45z m97 -17 c7 -7 12 -21 12 -33 0 -12 -5 -26 -12 -33 -28 -28 -78 -7 -78 33 0 12 5 26 12 33 7 7 21 12 33 12 12 0 26 -5 33 -12z m586 -14 c21 -20 20 -27 -5 -50 -15 -14 -24 -16 -37 -8 -22 14 -27 41 -12 59 16 19 35 19 54 -1z m110 -135 c48 -38 24 -109 -37 -109 -65 0 -91 70 -41 109 15 12 32 21 39 21 7 0 24 -9 39 -21z m-786 -11 c28 -28 7 -78 -33 -78 -27 0 -45 18 -45 45 0 27 18 45 45 45 12 0 26 -5 33 -12z m132 -103 c18 -21 5 -47 -22 -43 -26 3 -37 36 -16 49 18 12 24 11 38 -6z m528 -27 c22 -22 15 -67 -12 -80 -31 -14 -53 -5 -68 27 -9 21 -8 28 7 45 20 22 55 26 73 8z m-298 -83 c20 -25 8 -50 -25 -50 -21 0 -31 5 -33 18 -4 21 14 47 33 47 7 0 18 -7 25 -15z m425 -55 c0 -20 -6 -26 -28 -28 -29 -4 -44 16 -33 44 4 10 15 14 33 12 22 -2 28 -8 28 -28z m-741 -12 c22 -31 20 -58 -6 -85 -25 -27 -54 -29 -86 -7 -27 18 -30 69 -5 96 23 26 78 24 97 -4z m187 -28 c12 -7 19 -21 19 -40 0 -51 -58 -68 -86 -25 -15 23 -15 27 0 50 18 27 36 31 67 15z m269 -15 c20 -25 8 -50 -25 -50 -24 0 -31 5 -33 24 -6 37 34 55 58 26z m184 -46 c52 -41 19 -129 -49 -129 -64 0 -95 91 -46 131 30 25 62 24 95 -2z m-426 -121 c21 -21 14 -66 -12 -83 -50 -33 -104 20 -72 70 18 27 63 34 84 13z m200 -34 c2 -11 -3 -26 -11 -33 -29 -24 -70 17 -46 46 17 20 53 12 57 -13z"/>
 <path d="M475 839 c-9 -17 -15 -33 -13 -35 3 -2 12 12 21 31 21 43 13 47 -8 4z"/>
 <path d="M1527 835 c9 -19 18 -33 21 -31 4 5 -26 66 -33 66 -3 0 3 -16 12 -35z"/>
 <path d="M978 820 c-3 -16 -1 -30 4 -30 4 0 8 14 8 30 0 17 -2 30 -4 30 -2 0 -6 -13 -8 -30z"/>
 <path d="M1130 800 c0 -5 -7 -10 -15 -10 -8 0 -15 -4 -15 -10 0 -16 15 -12 35 10 10 11 13 20 7 20 -7 0 -12 -4 -12 -10z"/>
 <path d="M1070 720 l-25 -8 28 -1 c15 -1 27 4 27 9 0 6 -1 10 -2 9 -2 -1 -14 -5 -28 -9z"/>
 <path d="M460 356 c0 -11 40 -86 45 -86 3 0 -4 19 -16 43 -23 45 -29 54 -29 43z"/>
 <path d="M1522 315 c-12 -25 -20 -45 -17 -45 7 0 47 81 43 86 -3 2 -14 -17 -26 -41z"/>
 <path d="M528 235 c11 -16 42 -50 68 -75 43 -40 42 -38 -11 20 -79 87 -82 90 -57 55z"/>
 <path d="M1431 187 c-51 -57 -55 -63 -17 -27 41 39 94 101 84 100 -2 -1 -32 -33 -67 -73z"/>
 <path d="M1260 60 c-19 -11 -31 -19 -27 -20 11 0 67 29 67 35 0 7 -1 7 -40 -15z"/>
 </g>
<g id="layer105" fill="#ffd64d" stroke="none">
 <path d="M1526 1419 c-12 -61 -7 -99 12 -99 14 0 17 10 17 65 0 69 -18 90 -29 34z"/>
 <path d="M1612 1378 c4 -46 28 -49 28 -4 0 26 -4 36 -16 36 -11 0 -14 -8 -12 -32z"/>
 <path d="M1700 1375 c0 -52 42 -46 52 8 5 24 2 27 -23 27 -26 0 -29 -3 -29 -35z"/>
 <path d="M1590 1268 c-22 -18 -21 -18 50 -18 61 0 71 2 61 14 -19 22 -86 24 -111 4z"/>
 <path d="M651 915 c-184 -172 -187 -495 -5 -681 104 -107 215 -154 364 -154 232 0 418 138 484 359 24 82 21 211 -7 291 -41 115 -128 227 -169 217 -33 -7 -153 -39 -155 -41 -1 -1 4 -24 11 -51 11 -44 16 -50 39 -50 31 1 31 0 12 -80 -23 -94 -20 -184 8 -236 38 -72 22 -78 -42 -16 -116 115 -215 152 -288 107 l-33 -20 0 44 c0 36 -8 54 -44 104 -24 33 -49 63 -55 66 -21 13 -12 27 10 16 11 -7 23 -9 26 -7 10 10 43 158 38 167 -4 6 -38 10 -76 10 -69 0 -70 -1 -118 -45z m97 -17 c7 -7 12 -21 12 -33 0 -12 -5 -26 -12 -33 -28 -28 -78 -7 -78 33 0 12 5 26 12 33 7 7 21 12 33 12 12 0 26 -5 33 -12z m586 -14 c21 -20 20 -27 -5 -50 -15 -14 -24 -16 -37 -8 -22 14 -27 41 -12 59 16 19 35 19 54 -1z m110 -135 c48 -38 24 -109 -37 -109 -65 0 -91 70 -41 109 15 12 32 21 39 21 7 0 24 -9 39 -21z m-786 -11 c28 -28 7 -78 -33 -78 -27 0 -45 18 -45 45 0 27 18 45 45 45 12 0 26 -5 33 -12z m132 -103 c18 -21 5 -47 -22 -43 -26 3 -37 36 -16 49 18 12 24 11 38 -6z m528 -27 c22 -22 15 -67 -12 -80 -31 -14 -53 -5 -68 27 -9 21 -8 28 7 45 20 22 55 26 73 8z m-298 -83 c20 -25 8 -50 -25 -50 -21 0 -31 5 -33 18 -4 21 14 47 33 47 7 0 18 -7 25 -15z m425 -55 c0 -20 -6 -26 -28 -28 -29 -4 -44 16 -33 44 4 10 15 14 33 12 22 -2 28 -8 28 -28z m-741 -12 c22 -31 20 -58 -6 -85 -25 -27 -54 -29 -86 -7 -27 18 -30 69 -5 96 23 26 78 24 97 -4z m187 -28 c12 -7 19 -21 19 -40 0 -51 -58 -68 -86 -25 -15 23 -15 27 0 50 18 27 36 31 67 15z m269 -15 c20 -25 8 -50 -25 -50 -24 0 -31 5 -33 24 -6 37 34 55 58 26z m184 -46 c52 -41 19 -129 -49 -129 -64 0 -95 91 -46 131 30 25 62 24 95 -2z m-426 -121 c21 -21 14 -66 -12 -83 -50 -33 -104 20 -72 70 18 27 63 34 84 13z m200 -34 c2 -11 -3 -26 -11 -33 -29 -24 -70 17 -46 46 17 20 53 12 57 -13z"/>
 <path d="M978 820 c-3 -16 -1 -30 4 -30 4 0 8 14 8 30 0 17 -2 30 -4 30 -2 0 -6 -13 -8 -30z"/>
 <path d="M1130 800 c0 -5 -7 -10 -15 -10 -8 0 -15 -4 -15 -10 0 -16 15 -12 35 10 10 11 13 20 7 20 -7 0 -12 -4 -12 -10z"/>
 <path d="M1070 720 l-25 -8 28 -1 c15 -1 27 4 27 9 0 6 -1 10 -2 9 -2 -1 -14 -5 -28 -9z"/>
 </g>
<g id="layer106" fill="#faf7f5" stroke="none">
 <path d="M1526 1419 c-12 -61 -7 -99 12 -99 14 0 17 10 17 65 0 69 -18 90 -29 34z"/>
 <path d="M1612 1378 c4 -46 28 -49 28 -4 0 26 -4 36 -16 36 -11 0 -14 -8 -12 -32z"/>
 <path d="M1700 1375 c0 -52 42 -46 52 8 5 24 2 27 -23 27 -26 0 -29 -3 -29 -35z"/>
 <path d="M1590 1268 c-22 -18 -21 -18 50 -18 61 0 71 2 61 14 -19 22 -86 24 -111 4z"/>
 </g>

</svg>